<?xml version="1.0" standalone="no"?><!DOCTYPE svg PUBLIC "-//W3C//DTD SVG 1.1//EN" "http://www.w3.org/Graphics/SVG/1.1/DTD/svg11.dtd"><svg t="1681137501953" class="icon" viewBox="0 0 1024 1024" version="1.1" xmlns="http://www.w3.org/2000/svg" p-id="3676" xmlns:xlink="http://www.w3.org/1999/xlink" width="200" height="200"><path d="M872.859843 150.09772c-199.018458-199.018458-523.674267-199.018458-723.80456 0-199.018458 199.018458-199.018458 523.674267 0 723.80456 100.065147 100.065147 231.261672 150.09772 361.346363 150.09772 131.196526 0 262.393051-50.032573 361.346362-150.09772 201.242128-200.130293 201.242128-524.786102 1.111835-723.80456zM212.429876 810.527687C58.996651 655.982628 48.990137 411.378936 182.410332 245.715527l594.831705 594.831704C611.578627 973.967427 366.974936 965.072747 212.429876 810.527687z m628.186754-33.355049L245.784925 182.340934C322.501537 120.078176 417.007509 88.946797 511.513481 88.946797c107.847991 0 216.807818 41.137894 299.083605 123.413681C964.03031 366.905537 974.036825 611.509229 840.61663 777.172638z" p-id="3677" fill="#d81e06"></path></svg>